<?xml version="1.0" encoding="UTF-8" standalone="no"?>
<svg
     xmlns:dc="http://purl.org/dc/elements/1.1/"
     xmlns:cc="http://creativecommons.org/ns#"
     xmlns:rdf="http://www.w3.org/1999/02/22-rdf-syntax-ns#"
     xmlns:svg="http://www.w3.org/2000/svg"
     xmlns="http://www.w3.org/2000/svg"
     id="svg8"
     version="1.1"
     viewBox="0 0 396.87499 132.29167"
     height="500"
     width="1500">
    <title
         id="title1056">The Logo System of The Free T-shirts Campaign</title>
    <defs
         id="defs2" />
    <metadata
         id="metadata5">
        <rdf:RDF>
            <cc:Work
                 rdf:about="">
                <dc:format>image/svg+xml</dc:format>
                <dc:type
                     rdf:resource="http://purl.org/dc/dcmitype/StillImage" />
                <dc:title>The Logo System of The Free T-shirts Campaign</dc:title>
                <dc:date>Oct 7, 2020</dc:date>
                <dc:creator>
                    <cc:Agent>
                        <dc:title>Nguyen Hoang Duong</dc:title>
                    </cc:Agent>
                </dc:creator>
                <dc:description>https://you-create.github.io/free-tshirts</dc:description>
            </cc:Work>
        </rdf:RDF>
    </metadata>
    <g
         id="layer1">
        <rect
             y="0"
             x="0"
             height="132.29167"
             width="396.875"
             id="rect10"
             style="fill:#f2f2f2;stroke:none;stroke-width:2.0746;stroke-miterlimit:4;stroke-dasharray:none;stop-color:#000000" />
    </g>
    <g
         id="layer2">
        <text
             id="text14"
             y="114.00507"
             x="43.644375"
             style="font-style:normal;font-weight:normal;font-size:22.5778px;line-height:1.25;font-family:sans-serif;letter-spacing:0px;word-spacing:0px;fill:#1a1a1a;fill-opacity:1;stroke:none;stroke-width:0.264583"
             xml:space="preserve"><tspan
                 style="font-style:normal;font-variant:normal;font-weight:900;font-stretch:normal;font-size:22.5778px;font-family:Mulish;-inkscape-font-specification:'Mulish Heavy';fill:#1a1a1a;stroke-width:0.264583"
                 y="114.00507"
                 x="43.644375"
                 id="tspan12">The Free T-shirts Campaign</tspan></text>
        <path
             id="rect20"
             style="display:inline;fill:#1a1a1a;stroke-width:0.701108;stop-color:#000000"
             d="m 174.39485,13.229167 -20.82156,12.02127 9.61707,16.657357 11.20449,-6.468976 v 41.175527 h 48.08532 V 35.438818 l 11.20448,6.468976 9.61706,-16.65724 -20.82154,-12.021387 h -12.02139 a 12.021326,12.021326 0 0 1 -12.02128,12.02127 12.021326,12.021326 0 0 1 -12.02138,-12.02127 z m 25.76,17.953861 v 1.717458 h 5.15202 a 3.4346627,3.4346627 0 0 1 3.4237,3.160941 h 0.011 v 16.189901 a 3.4346627,3.4346627 0 0 1 1.71722,2.97448 3.4346627,3.4346627 0 0 1 -3.43468,3.434565 3.4346627,3.4346627 0 0 1 -3.43468,-3.434565 3.4346627,3.4346627 0 0 1 1.71746,-2.974593 V 39.769734 36.335051 h -5.15203 v 1.717342 l -1.48729,-1.717342 -1.48718,-1.717341 1.48718,-1.717224 z m -10.32485,1.2e-4 a 3.4346627,3.4346627 0 0 1 0.0143,0 3.4346627,3.4346627 0 0 1 0.007,0 3.4346627,3.4346627 0 0 1 3.43468,3.434564 3.4346627,3.4346627 0 0 1 -1.71734,2.974591 v 14.658919 a 3.4346627,3.4346627 0 0 1 1.71734,2.974593 3.4346627,3.4346627 0 0 1 -3.43468,3.434562 3.4346627,3.4346627 0 0 1 -3.43468,-3.434562 3.4346627,3.4346627 0 0 1 1.71734,-2.974593 V 37.592183 a 3.4346627,3.4346627 0 0 1 -1.71734,-2.974473 3.4346627,3.4346627 0 0 1 3.41388,-3.434565 z" />
    </g>
    <g
         id="layer3" />
</svg>
