<?xml version="1.0" encoding="UTF-8" standalone="no"?>
<svg
     xmlns:dc="http://purl.org/dc/elements/1.1/"
     xmlns:cc="http://creativecommons.org/ns#"
     xmlns:rdf="http://www.w3.org/1999/02/22-rdf-syntax-ns#"
     xmlns:svg="http://www.w3.org/2000/svg"
     xmlns="http://www.w3.org/2000/svg"
     width="4000"
     height="2000"
     viewBox="0 0 4000 2000.0001"
     version="1.1"
     id="svg8">
    <title
         id="title856">Guide Logo of The Free T-shirts Campaign</title>
    <defs
         id="defs2" />
    <metadata
         id="metadata5">
        <rdf:RDF>
            <cc:Work
                 rdf:about="">
                <dc:format>image/svg+xml</dc:format>
                <dc:type
                     rdf:resource="http://purl.org/dc/dcmitype/StillImage" />
                <dc:title>Guide Logo of The Free T-shirts Campaign</dc:title>
                <dc:date>Oct 8 2020</dc:date>
                <dc:creator>
                    <cc:Agent>
                        <dc:title>Nguyen Hoang Duong</dc:title>
                    </cc:Agent>
                </dc:creator>
                <dc:description>This version of the logo is constructed from primitive geometries. It is meant to serve as a reference for duplicating the logo. https://you-create.github.io/free-tshirts</dc:description>
            </cc:Work>
        </rdf:RDF>
    </metadata>
    <g
         id="layer1"
         style="display:inline">
        <rect
             style="fill:#f2f2f2;stroke-width:21.7995;stop-color:#000000"
             id="rect89"
             width="2000"
             height="2000"
             x="2000"
             y="0" />
        <rect
             style="fill:#f2f2f2;stroke-width:21.7995;stop-color:#000000"
             id="rect10"
             width="2000"
             height="2000"
             x="0"
             y="0" />
    </g>
    <g
         id="layer2"
         style="display:inline">
        <rect
             style="fill:#1a1a1a;stroke-width:11.7205;stop-color:#000000"
             id="rect20"
             width="803.84723"
             height="1059.6168"
             x="598.07617"
             y="570.67255" />
        <circle
             style="font-variation-settings:normal;opacity:1;vector-effect:none;fill:#cccccc;fill-opacity:1;stroke-width:6.11599;stroke-linecap:butt;stroke-linejoin:miter;stroke-miterlimit:4;stroke-dasharray:12.232, 6.11599;stroke-dashoffset:0;stroke-opacity:1;stop-color:#000000;stop-opacity:1"
             id="path26"
             cx="999.99976"
             cy="570.67255"
             r="200.96187" />
        <rect
             style="font-variation-settings:normal;opacity:1;vector-effect:none;fill:#333333;fill-opacity:1;stroke-width:7.17482;stroke-linecap:butt;stroke-linejoin:miter;stroke-miterlimit:4;stroke-dasharray:14.3497, 7.17482000000000042;stroke-dashoffset:0;stroke-opacity:1;stop-color:#000000;stop-opacity:1"
             id="rect48"
             width="401.92426"
             height="321.5394"
             x="-169.31084"
             y="793.255"
             transform="rotate(-30)" />
        <rect
             style="font-variation-settings:normal;opacity:1;vector-effect:none;fill:#333333;fill-opacity:1;stroke-width:7.17482;stroke-linecap:butt;stroke-linejoin:miter;stroke-miterlimit:4;stroke-dasharray:14.3497, 7.17482000000000042;stroke-dashoffset:0;stroke-opacity:1;stop-color:#000000;stop-opacity:1"
             id="rect70"
             width="401.92426"
             height="321.5394"
             x="-1901.3618"
             y="-206.7448"
             transform="matrix(-0.8660254,-0.5,-0.5,0.8660254,0,0)" />
        <path
             id="circle225"
             style="font-variation-settings:normal;display:inline;opacity:1;vector-effect:none;fill:#f2f2f2;fill-opacity:1;stroke-width:1.80853;stroke-linecap:butt;stroke-linejoin:miter;stroke-miterlimit:4;stroke-dasharray:none;stroke-dashoffset:0;stroke-opacity:1;stop-color:#000000;stop-opacity:1"
             d="m 1028.7091,870.81032 -24.8628,28.70927 -24.8627,28.70847 24.8627,28.70927 24.8628,28.70851 v -28.70851 h 86.1262 v 57.41777 208.654 a 57.417644,57.417644 0 0 0 -28.7093,49.7255 57.417644,57.417644 0 0 0 57.4178,57.4169 57.417644,57.417644 0 0 0 57.4177,-57.4169 57.417644,57.417644 0 0 0 -28.7084,-49.7247 V 952.36312 h -0.183 a 57.417644,57.417644 0 0 0 -57.2348,-52.84353 h -86.1262 z m -172.3624,8e-4 a 57.417644,57.417644 0 0 0 -57.30866,57.41696 57.417644,57.417644 0 0 0 28.70851,49.7247 v 245.05642 a 57.417644,57.417644 0 0 0 -28.70851,49.7254 57.417644,57.417644 0 0 0 57.41778,57.417 57.417644,57.417644 0 0 0 57.41775,-57.417 57.417644,57.417644 0 0 0 -28.70928,-49.7254 V 977.95359 a 57.417644,57.417644 0 0 0 28.70928,-49.72551 57.417644,57.417644 0 0 0 -57.41775,-57.41696 57.417644,57.417644 0 0 0 -0.10912,0 z" />
    </g>
    <g
         id="layer3"
         style="display:inline">
        <circle
             style="fill:#1a1a1a;stroke-width:6.11599;stroke-dasharray:12.232, 6.11599;stop-color:#000000"
             id="circle37"
             cx="2642.8572"
             cy="1428.5715"
             r="142.85715" />
        <circle
             style="fill:#1a1a1a;stroke-width:6.11599;stroke-dasharray:12.232, 6.11599;stop-color:#000000"
             id="circle43"
             cx="2642.8572"
             cy="571.42865"
             r="142.85715" />
        <circle
             style="font-variation-settings:normal;vector-effect:none;fill:#cccccc;fill-opacity:1;stroke-width:6.11599;stroke-linecap:butt;stroke-linejoin:miter;stroke-miterlimit:4;stroke-dasharray:12.232, 6.11599;stroke-dashoffset:0;stroke-opacity:1;stop-color:#000000"
             id="circle45"
             cx="2928.5715"
             cy="1428.5715"
             r="142.85715" />
        <path
             style="font-variation-settings:normal;vector-effect:none;fill:#cccccc;fill-opacity:1;stroke-width:6.11599;stroke-linecap:butt;stroke-linejoin:miter;stroke-miterlimit:4;stroke-dasharray:12.232, 6.11599;stroke-dashoffset:0;stroke-opacity:1;stop-color:#000000"
             id="path47"
             d="m 3214.2856,1571.4287 a 142.85715,142.85715 0 0 1 -123.7179,-71.4286 142.85715,142.85715 0 0 1 0,-142.8571 142.85715,142.85715 0 0 1 123.7179,-71.4286 v 142.8571 z" />
        <circle
             style="fill:#1a1a1a;stroke-width:6.11599;stroke-dasharray:12.232, 6.11599;stop-color:#000000"
             id="circle49"
             cx="3357.1428"
             cy="1428.5715"
             r="142.85715" />
        <path
             style="fill:#1a1a1a;stroke-width:5.49581;stroke-dasharray:10.9916, 5.49581;stop-color:#000000"
             id="path51"
             transform="matrix(0.76930992,0,0,1.5386147,1049.3776,-479.37082)"
             d="m 2628.3971,775.79967 -80.4087,-46.42401 -80.4088,-46.42401 80.4087,-46.42399 80.4088,-46.424 0,92.848 z" />
        <rect
             style="fill:#1a1a1a;stroke-width:7.17482;stroke-dasharray:14.3497, 7.17482;stop-color:#000000"
             id="rect53"
             width="142.8573"
             height="797.09406"
             x="3285.7141"
             y="631.47742" />
        <path
             style="font-variation-settings:normal;vector-effect:none;fill:#333333;fill-opacity:1;stroke-width:7.17482;stroke-linecap:butt;stroke-linejoin:miter;stroke-miterlimit:4;stroke-dasharray:14.3497, 7.17482;stroke-dashoffset:0;stroke-opacity:1;stop-color:#000000"
             id="circle55"
             d="m 3285.7141,500.00052 a 142.85715,142.85715 0 0 1 142.8572,142.85715 142.85715,142.85715 0 0 1 -142.8572,142.85714" />
        <rect
             style="font-variation-settings:normal;vector-effect:none;fill:#1a1a1a;fill-opacity:1;stroke-width:7.17482;stroke-linecap:butt;stroke-linejoin:miter;stroke-miterlimit:4;stroke-dasharray:14.3497, 7.17482;stroke-dashoffset:0;stroke-opacity:1;stop-color:#000000"
             id="rect57"
             width="142.8573"
             height="214.28468"
             x="499.99997"
             y="-3285.7141"
             transform="rotate(90)" />
        <rect
             style="fill:#1a1a1a;stroke-width:7.44017;stroke-dasharray:14.8804, 7.44017;stop-color:#000000"
             id="rect115"
             width="142.8573"
             height="857.14264"
             x="2571.4285"
             y="571.42871" />
        <circle
             style="fill:#cccccc;stroke-width:6.11599;stroke-dasharray:12.232, 6.11599;stop-color:#000000"
             id="circle41"
             cx="2642.8572"
             cy="857.14294"
             r="142.85715" />
        <circle
             style="fill:#cccccc;stroke-width:6.11599;stroke-dasharray:12.232, 6.11599;stop-color:#000000"
             id="circle39"
             cx="2642.8572"
             cy="1142.8572"
             r="142.85715" />
    </g>
</svg>
