<?xml version="1.0" encoding="UTF-8" standalone="no"?>
<svg
     xmlns:dc="http://purl.org/dc/elements/1.1/"
     xmlns:cc="http://creativecommons.org/ns#"
     xmlns:rdf="http://www.w3.org/1999/02/22-rdf-syntax-ns#"
     xmlns:svg="http://www.w3.org/2000/svg"
     xmlns="http://www.w3.org/2000/svg"
     width="2000"
     height="2000"
     viewBox="0 0 2000 2000.0001"
     version="1.1"
     id="svg8">
    <title
         id="title9">Logo of The Free T-shirts Campaign</title>
    <defs
         id="defs2" />
    <metadata
         id="metadata5">
        <rdf:RDF>
            <cc:Work
                 rdf:about="">
                <dc:format>image/svg+xml</dc:format>
                <dc:type
                     rdf:resource="http://purl.org/dc/dcmitype/StillImage" />
                <dc:title>Logo of The Free T-shirts Campaign</dc:title>
                <dc:creator>
                    <cc:Agent>
                        <dc:title>Nguyen Hoang Duong &lt;you_create@protonmail.com&gt;</dc:title>
                    </cc:Agent>
                </dc:creator>
                <dc:description>Logo of The Free T-shirts Campaign, with a greyish background color (that is not part of the logo). Check out the website of the campaign: https://you-create.github.io/free-tshirts.</dc:description>
            </cc:Work>
        </rdf:RDF>
    </metadata>
    <g
         id="layer1">
        <rect
             style="fill:#f2f2f2;stroke-width:21.7995;stop-color:#000000"
             id="rect10"
             width="2000"
             height="2000"
             x="0"
             y="0" />
        <path
             id="rect20"
             style="fill:#1a1a1a;stroke-width:11.7205;stop-color:#000000"
             d="M 598.07617 570.67188 L 250 771.63477 L 410.76953 1050.0957 L 598.07617 941.95312 L 598.07617 1630.2891 L 1401.9238 1630.2891 L 1401.9238 941.95508 L 1589.2305 1050.0957 L 1750 771.63477 L 1401.9238 570.67188 L 1200.9609 570.67188 A 200.96187 200.96187 0 0 1 1000 771.63477 A 200.96187 200.96187 0 0 1 799.03711 570.67188 L 598.07617 570.67188 z M 867.59961 888.78125 L 867.60547 888.78125 A 52.923667 52.923667 0 0 1 867.68555 888.78125 A 52.923667 52.923667 0 0 1 920.60742 941.70312 A 52.923667 52.923667 0 0 1 885.33203 991.60352 L 885.33203 1209.3516 A 52.923667 52.923667 0 0 1 920.60742 1259.252 A 52.923667 52.923667 0 0 1 867.68555 1312.1758 A 52.923667 52.923667 0 0 1 814.76172 1259.252 A 52.923667 52.923667 0 0 1 850.04688 1209.3516 L 850.04688 991.60352 A 52.923667 52.923667 0 0 1 814.76172 941.70312 A 52.923667 52.923667 0 0 1 867.59961 888.78125 z M 1026.4316 896.90039 L 1026.4316 931.26367 L 1079.3906 931.26367 C 1100.2993 931.26367 1119.6229 941.35186 1131.8398 957.83203 C 1144.0568 974.31229 1149.9434 996.23887 1149.9434 1021.5391 L 1149.9434 1209.3555 C 1171.0947 1216.8282 1185.238 1236.8253 1185.2383 1259.2578 C 1185.2381 1288.4867 1161.5436 1312.1813 1132.3145 1312.1816 C 1103.0822 1312.1863 1079.381 1288.4903 1079.3809 1259.2578 C 1079.3801 1236.8274 1093.5181 1216.8312 1114.666 1209.3555 L 1114.666 1021.5391 C 1114.666 1001.8415 1109.8438 987.45833 1103.4707 978.86133 C 1097.0975 970.26422 1089.9703 966.53125 1079.3906 966.53125 L 1026.4316 966.53125 L 1026.4316 1002.125 L 1000.1016 975.8125 L 973.76172 949.52734 C 973.76172 949.52734 991.32418 931.98789 1000.1016 923.21484 C 1004.2948 919.02381 1008.4845 914.82746 1012.6777 910.63672 C 1017.261 906.05649 1026.4316 896.90039 1026.4316 896.90039 z " />
    </g>
</svg>
