<?xml version="1.0" encoding="UTF-8" standalone="no"?>
<svg
     xmlns:dc="http://purl.org/dc/elements/1.1/"
     xmlns:cc="http://creativecommons.org/ns#"
     xmlns:rdf="http://www.w3.org/1999/02/22-rdf-syntax-ns#"
     xmlns:svg="http://www.w3.org/2000/svg"
     xmlns="http://www.w3.org/2000/svg"
     width="2000"
     height="2000"
     viewBox="0 0 2000 2000"
     version="1.1"
     id="svg8">
    <title
         id="title24">Logo of The Free T-shirts Campaign</title>
    <defs
         id="defs2" />
    <metadata
         id="metadata5">
        <rdf:RDF>
            <cc:Work
                 rdf:about="">
                <dc:format>image/svg+xml</dc:format>
                <dc:type
                     rdf:resource="http://purl.org/dc/dcmitype/StillImage" />
                <dc:title>Logo of The Free T-shirts Campaign</dc:title>
                <dc:date>Oct 7, 2020</dc:date>
                <dc:creator>
                    <cc:Agent>
                        <dc:title>Nguyen Hoang Duong</dc:title>
                    </cc:Agent>
                </dc:creator>
                <dc:description>https://you-create.github.io/free-tshirts</dc:description>
            </cc:Work>
        </rdf:RDF>
    </metadata>
    <g
         id="layer2">
        <rect
             style="fill:#f2f2f2;stroke-width:3.59849px;stop-color:#000000"
             id="rect10"
             width="2000"
             height="2000"
             x="0"
             y="0" />
    </g>
    <g
         id="layer1">
        <g
             transform="matrix(18.574572,0,0,18.574572,-3149.6365,127.66664)"
             id="g1037">
            <path
                 d="m 209.81398,11.730161 -14.28253,2.173921 a 5.6607505,5.6607505 151.8867 0 0 -3.32655,1.777205 l -13.66495,14.950413 13.95291,13.952907 9.10952,-9.108837 7e-5,46.744172 h 21.8017 21.80163 l 1.3e-4,-46.744172 9.10953,9.108837 L 268.26835,30.6317 254.60406,15.681318 a 5.6604936,5.6604936 28.113793 0 0 -3.32652,-1.777225 l -14.28322,-2.173943 -0.26686,-0.0224 -0.25376,0.01448 -0.23948,0.0492 -0.224,0.08178 -0.20731,0.112201 -0.18942,0.140476 -0.17033,0.166603 -0.15006,0.190579 -0.12856,0.212407 -0.10589,0.232085 -0.082,0.249613 -0.0569,0.264992 c -0.45608,2.820776 -2.54769,7.638641 -11.51559,7.638641 -8.96812,0 -11.05962,-4.818105 -11.51563,-7.638852 l -0.0569,-0.264964 -0.082,-0.249586 -0.10588,-0.232059 -0.12856,-0.212382 -0.15005,-0.190556 -0.17033,-0.166581 -0.18942,-0.140457 -0.20731,-0.112184 -0.22399,-0.08176 -0.23949,-0.04919 -0.25376,-0.01447 z"
                 style="fill:#1a1a1a;fill-opacity:1;stroke-width:0.353098;stop-color:#000000"
                 id="path12" />
            <path
                 d="m 224.95963,37.005827 -8e-5,-2.022169 c 0,0 -0.53968,0.538815 -0.80939,0.808352 -0.24677,0.246615 -0.49332,0.49345 -0.74008,0.740082 -0.51653,0.516274 -1.54998,1.548434 -1.54998,1.548434 l 1.54998,1.54688 1.54947,1.548434 8e-5,-2.094574 h 3.11646 c 0.62259,0 1.04202,0.219685 1.41707,0.725603 0.37504,0.505915 0.65889,1.352252 0.65889,2.511418 v 11.052629 c -1.24451,0.439921 -2.07653,1.616568 -2.07648,2.936539 1e-5,1.720261 1.39471,3.114724 3.11497,3.114451 1.72006,-1.4e-5 3.11444,-1.394393 3.11445,-3.114451 -2e-5,-1.320104 -0.83228,-2.49679 -2.07699,-2.936539 V 42.318287 c 0,-1.48886 -0.34644,-2.779206 -1.06539,-3.749028 -0.71893,-0.969821 -1.85602,-1.563432 -3.08645,-1.563432 z m -9.34655,-2.50004 a 3.1144354,3.1144354 0 0 0 -3.10976,3.114408 3.1144354,3.1144354 0 0 0 2.07644,2.936506 v 12.813975 a 3.1144354,3.1144354 0 0 0 -2.07644,2.936502 3.1144354,3.1144354 0 0 0 3.11441,3.114411 3.1144354,3.1144354 0 0 0 3.11441,-3.114411 3.1144354,3.1144354 0 0 0 -2.07592,-2.936502 V 40.556701 a 3.1144354,3.1144354 0 0 0 2.07592,-2.936506 3.1144354,3.1144354 0 0 0 -3.11441,-3.114408 3.1144354,3.1144354 0 0 0 -0.005,0 z"
                 style="fill:#f2f2f2;fill-opacity:1;stroke-width:0.264795;stop-color:#000000"
                 id="circle118" />
        </g>
    </g>
</svg>
